<svg width="78" height="99" viewBox="0 0 78 99" fill="none" xmlns="http://www.w3.org/2000/svg">
<mask id="path-1-inside-1" fill="white">
<path fill-rule="evenodd" clip-rule="evenodd" d="M44.8806 67.8292C44.8806 62.3276 47.8767 57.3793 51.2801 53.0567C55.1257 48.1725 57.42 42.0095 57.42 35.3106C57.42 19.4545 44.5661 6.60059 28.71 6.60059C12.8539 6.60059 0 19.4545 0 35.3106C0 42.2813 2.48425 48.6718 6.6157 53.645C10.1321 57.8777 13.2006 62.8013 13.2006 68.3041V68.64C13.2006 77.3882 20.2924 84.48 29.0406 84.48C37.7888 84.48 44.8806 77.3882 44.8806 68.64V67.8292Z"/>
</mask>
<path d="M54.42 35.3106C54.42 41.3125 52.3671 46.8267 48.923 51.2009L53.6371 54.9126C57.8844 49.5183 60.42 42.7064 60.42 35.3106H54.42ZM28.71 9.60059C42.9092 9.60059 54.42 21.1113 54.42 35.3106H60.42C60.42 17.7976 46.2229 3.60059 28.71 3.60059V9.60059ZM3 35.3106C3 21.1113 14.5108 9.60059 28.71 9.60059V3.60059C11.197 3.60059 -3 17.7976 -3 35.3106H3ZM8.9233 51.7279C5.2227 47.2734 3 41.5555 3 35.3106H-3C-3 43.0071 -0.254198 50.0701 4.3081 55.562L8.9233 51.7279ZM16.2006 68.64V68.3041H10.2006V68.64H16.2006ZM41.8806 67.8292V68.64H47.8806V67.8292H41.8806ZM10.2006 68.64C10.2006 79.045 18.6356 87.48 29.0406 87.48V81.48C21.9493 81.48 16.2006 75.7313 16.2006 68.64H10.2006ZM4.3081 55.562C7.72575 59.6759 10.2006 63.9013 10.2006 68.3041H16.2006C16.2006 61.7013 12.5384 56.0795 8.9233 51.7279L4.3081 55.562ZM29.0406 87.48C39.4456 87.48 47.8806 79.0451 47.8806 68.64H41.8806C41.8806 75.7313 36.1319 81.48 29.0406 81.48V87.48ZM48.923 51.2009C45.4401 55.6244 41.8806 61.2603 41.8806 67.8292H47.8806C47.8806 63.3949 50.3132 59.1342 53.6371 54.9126L48.923 51.2009Z" fill="#97C705" mask="url(#path-1-inside-1)"/>
<path d="M9.23975 35.3098C9.23975 24.5569 17.9568 15.8398 28.7097 15.8398" stroke="#97C705" stroke-width="3" stroke-linecap="round"/>
<rect x="6.59961" y="66.6602" width="43.56" height="32.34" fill="#313131"/>
<rect x="33.6602" y="6.60059" width="43.56" height="32.34" fill="#313131"/>
<line x1="14.04" y1="73.0801" x2="44.04" y2="73.0801" stroke="#97C705" stroke-width="3" stroke-linecap="round"/>
<line x1="53.6401" y1="1.5" x2="53.6401" y2="31.5" stroke="#97C705" stroke-width="3" stroke-linecap="round"/>
<line x1="68.46" y1="17.3398" x2="38.46" y2="17.3398" stroke="#97C705" stroke-width="3" stroke-linecap="round"/>
<line x1="14.04" y1="81.6602" x2="44.04" y2="81.6602" stroke="#97C705" stroke-width="3" stroke-linecap="round"/>
<line x1="22.6196" y1="90.2402" x2="35.4596" y2="90.2402" stroke="#97C705" stroke-width="3" stroke-linecap="round"/>
</svg>
