<svg width="55" height="88" viewBox="0 0 55 88" fill="none" xmlns="http://www.w3.org/2000/svg">
<path d="M27.5508 17.7607V34.8984" stroke="#97C705" stroke-width="3"/>
<path d="M42.1767 4.07014C41.4358 11.6197 35.4309 17.6245 27.8814 18.3655C28.6224 10.8159 34.6272 4.81112 42.1767 4.07014Z" stroke="#97C705" stroke-width="3"/>
<path d="M10.4206 1.56551C11.1718 10.502 18.2952 17.6253 27.2316 18.3765C26.4804 9.44008 19.357 2.31671 10.4206 1.56551Z" stroke="#97C705" stroke-width="3"/>
<path d="M52.2767 53.9849L50.8252 54.3633L52.2767 53.9849ZM11.6501 40.4477L10.7159 39.2741L11.6501 40.4477ZM8.13105 77.0546L9.27064 76.0792L8.13105 77.0546ZM27.5507 87.4999C42.4904 87.4999 54.6015 75.3889 54.6015 60.4492H51.6015C51.6015 73.732 40.8336 84.4999 27.5507 84.4999V87.4999ZM6.99146 78.0299C11.9505 83.824 19.3221 87.4999 27.5507 87.4999V84.4999C20.2354 84.4999 13.6841 81.2357 9.27064 76.0792L6.99146 78.0299ZM11.971 70.1668H11.0531V73.1668H11.971V70.1668ZM25.9927 76.3986H18.2028V79.3986H25.9927V76.3986ZM22.2537 68.8044H25.9927V65.8044H22.2537V68.8044ZM22.8768 60.1957H22.2537V63.1957H22.8768V60.1957ZM24.8044 56.3986V58.2681H27.8044V56.3986H24.8044ZM17.1708 52.6015H21.0073V49.6015H17.1708V52.6015ZM27.5507 33.3984C21.1884 33.3984 15.3355 35.5968 10.7159 39.2741L12.5843 41.6213C16.692 38.3514 21.8912 36.3984 27.5507 36.3984V33.3984ZM42.3231 37.7847C38.0754 35.0107 32.9991 33.3984 27.5507 33.3984V36.3984C32.399 36.3984 36.908 37.8314 40.6828 40.2965L42.3231 37.7847ZM47.2584 55.21H38.4566V58.21H47.2584V55.21ZM54.6015 60.4492C54.6015 58.0871 54.2984 55.7937 53.7281 53.6065L50.8252 54.3633C51.3315 56.3055 51.6015 58.3447 51.6015 60.4492H54.6015ZM1.74641 60.5799V61.0726H4.74641V60.5799H1.74641ZM3.53434 61.7463C3.51155 61.3169 3.5 60.8845 3.5 60.4492H0.5C0.5 60.9375 0.512958 61.4231 0.538564 61.9053L3.53434 61.7463ZM1.74641 61.0726V61.6957H4.74641V61.0726H1.74641ZM0.538564 61.9053C0.566308 62.4279 0.720478 62.9913 1.10626 63.4482C1.51129 63.9279 2.13556 64.2283 2.82897 64.1522C4.23066 63.9983 4.74641 62.6528 4.74641 61.6957H1.74641C1.74641 61.7651 1.72964 61.692 1.8193 61.5579C1.90827 61.4248 2.12794 61.2111 2.50166 61.1701C2.90054 61.1263 3.22631 61.3089 3.3985 61.5128C3.55144 61.694 3.53845 61.8235 3.53434 61.7463L0.538564 61.9053ZM4.74641 60.5799C4.74641 60.0144 4.62621 59.4496 4.33566 58.9685C4.05124 58.4975 3.53082 58.0141 2.77967 57.9353C1.97781 57.8512 1.32752 58.2709 0.961022 58.8009C0.615524 59.3005 0.5 59.8961 0.5 60.4492H3.5C3.5 60.2773 3.54028 60.3456 3.42848 60.5072C3.29569 60.6993 2.95699 60.9704 2.46674 60.919C2.02719 60.8729 1.81837 60.6034 1.76765 60.5194C1.7108 60.4253 1.74641 60.4205 1.74641 60.5799H4.74641ZM50.8624 54.606C50.8624 54.3589 50.9291 54.2421 50.9559 54.2053C50.9864 54.1633 50.9931 54.1813 50.9432 54.1923C50.9189 54.1977 50.8851 54.2 50.8458 54.1928C50.8053 54.1853 50.7714 54.1698 50.7482 54.1539C50.7252 54.1382 50.7269 54.1319 50.743 54.1565C50.7598 54.1822 50.7943 54.245 50.8252 54.3633L53.7281 53.6065C53.5213 52.8132 53.0943 52.1241 52.4422 51.678C51.7877 51.2302 51.0132 51.104 50.2939 51.2634C48.8292 51.5882 47.8624 52.9671 47.8624 54.606H50.8624ZM47.2584 58.21C49.2488 58.21 50.8624 56.5964 50.8624 54.606H47.8624C47.8624 54.9396 47.592 55.21 47.2584 55.21V58.21ZM31.6595 51.4129C31.6595 55.1668 34.7027 58.21 38.4566 58.21V55.21C36.3595 55.21 34.6595 53.51 34.6595 51.4129H31.6595ZM38.4863 44.6158C34.7433 44.6158 31.6595 47.648 31.6595 51.4129H34.6595C34.6595 49.3267 36.3783 47.6158 38.4863 47.6158V44.6158ZM17.1708 49.6015C14.4557 49.6015 12.3383 48.2016 11.4168 46.5482C10.9617 45.7316 10.8071 44.8785 10.9563 44.0795C11.1036 43.2912 11.5701 42.4285 12.5843 41.6213L10.7159 39.2741C9.21109 40.472 8.30339 41.9436 8.00734 43.5288C7.71326 45.1034 8.04638 46.6631 8.7963 48.0087C10.2848 50.6796 13.4467 52.6015 17.1708 52.6015V49.6015ZM27.8044 56.3986C27.8044 52.6446 24.7612 49.6015 21.0073 49.6015V52.6015C23.1044 52.6015 24.8044 54.3015 24.8044 56.3986H27.8044ZM22.8768 63.1957C25.5982 63.1957 27.8044 60.9895 27.8044 58.2681H24.8044C24.8044 59.3327 23.9414 60.1957 22.8768 60.1957V63.1957ZM20.9493 64.5C20.9493 63.7796 21.5333 63.1957 22.2537 63.1957V60.1957C19.8764 60.1957 17.9493 62.1228 17.9493 64.5H20.9493ZM22.2537 65.8044C21.5333 65.8044 20.9493 65.2204 20.9493 64.5H17.9493C17.9493 66.8772 19.8764 68.8044 22.2537 68.8044V65.8044ZM32.7898 72.6015C32.7898 68.8475 29.7467 65.8044 25.9927 65.8044V68.8044C28.0898 68.8044 29.7898 70.5044 29.7898 72.6015H32.7898ZM25.9927 79.3986C29.7467 79.3986 32.7898 76.3554 32.7898 72.6015H29.7898C29.7898 74.6986 28.0898 76.3986 25.9927 76.3986V79.3986ZM13.5869 74.7827C13.5869 77.332 15.6535 79.3986 18.2028 79.3986V76.3986C17.3104 76.3986 16.5869 75.6751 16.5869 74.7827H13.5869ZM11.971 73.1668C12.8635 73.1668 13.5869 73.8902 13.5869 74.7827H16.5869C16.5869 72.2334 14.5203 70.1668 11.971 70.1668V73.1668ZM40.6828 40.2965C41.3254 40.7162 41.6123 41.1729 41.7246 41.5602C41.8393 41.9562 41.8064 42.3998 41.6046 42.8461C41.1963 43.7491 40.095 44.6158 38.4863 44.6158V47.6158C41.1983 47.6158 43.414 46.126 44.3382 44.0821C44.8026 43.0549 44.9399 41.8773 44.606 40.7252C44.2696 39.5645 43.4892 38.5462 42.3231 37.7847L40.6828 40.2965ZM9.27064 76.0792C8.73463 75.453 8.74318 74.7951 9.05203 74.2477C9.38289 73.6612 10.0958 73.1668 11.0531 73.1668V70.1668C9.02663 70.1668 7.30843 71.2328 6.43918 72.7736C5.54791 74.3533 5.58731 76.3894 6.99146 78.0299L9.27064 76.0792Z" fill="#97C705"/>
<circle cx="27.5507" cy="60.4492" r="25.5507" stroke="#97C705" stroke-width="3"/>
</svg>
