<svg width="95" height="98" viewBox="0 0 95 98" fill="none" xmlns="http://www.w3.org/2000/svg">
<path d="M53.6985 20.387L52.6379 21.4477L53.6985 20.387ZM79.5609 72.6129L78.5002 71.5522L79.5609 72.6129ZM63.3792 61.0443L64.4398 62.1049L63.3792 61.0443ZM63.3792 64.9165L62.3185 65.9771L63.3792 64.9165ZM60.1523 57.8176L59.0916 56.7569L60.1523 57.8176ZM39.701 35.0876L38.2231 34.8313L39.701 35.0876ZM41.3822 42.92L40.3215 43.9807L41.3822 42.92ZM22.1827 21.8833L21.5279 20.5338L22.1827 21.8833ZM60.4751 57.4948L59.4144 56.4341L60.4751 57.4948ZM79.7431 48.5524L87.4396 56.2489L89.5609 54.1276L81.8644 46.4311L79.7431 48.5524ZM77.6697 48.8751L77.9923 48.5524L75.871 46.4311L75.5484 46.7537L77.6697 48.8751ZM72.6441 43.2044L72.3216 43.527L74.4429 45.6483L74.7654 45.3258L72.6441 43.2044ZM52.6379 21.4477L72.6441 41.4539L74.7654 39.3326L54.7592 19.3264L52.6379 21.4477ZM21.0731 20.3606C30.1628 12.4258 43.9785 12.7884 52.6379 21.4477L54.7592 19.3264C44.9764 9.5436 29.3706 9.13515 19.1002 18.1006L21.0731 20.3606ZM37.3349 23.1989C33.0573 18.9213 26.6767 18.0357 21.5279 20.5338L22.8374 23.2329C26.8718 21.2755 31.8674 21.9741 35.2135 25.3202L37.3349 23.1989ZM41.1789 35.3438C41.9203 31.0686 40.6405 26.5045 37.3349 23.1989L35.2135 25.3202C37.8001 27.9067 38.8048 31.4762 38.2231 34.8313L41.1789 35.3438ZM57.3404 56.7569L42.4428 41.8593L40.3215 43.9807L55.2191 58.8783L57.3404 56.7569ZM59.4144 56.4341L59.0916 56.7569L61.2129 58.8783L61.5358 58.5554L59.4144 56.4341ZM64.4398 62.1049L64.7625 61.7822L62.6412 59.6609L62.3185 59.9836L64.4398 62.1049ZM72.1363 71.5522L64.4398 63.8558L62.3185 65.9771L70.015 73.6736L72.1363 71.5522ZM87.4396 62.6129L78.5002 71.5522L80.6216 73.6736L89.5609 64.7342L87.4396 62.6129ZM70.015 73.6736C72.9439 76.6025 77.6926 76.6025 80.6216 73.6736L78.5002 71.5522C76.7429 73.3096 73.8936 73.3096 72.1363 71.5522L70.015 73.6736ZM62.3185 59.9836C60.6635 61.6387 60.6634 64.322 62.3185 65.9771L64.4398 63.8558C63.9563 63.3723 63.9563 62.5884 64.4398 62.1049L62.3185 59.9836ZM55.2191 58.8783C56.8743 60.5334 59.5578 60.5334 61.2129 58.8783L59.0916 56.7569C58.608 57.2405 57.824 57.2405 57.3404 56.7569L55.2191 58.8783ZM38.2231 34.8313C37.7211 37.7263 37.8049 41.464 40.3215 43.9807L42.4428 41.8593C40.9966 40.4131 40.7235 37.9707 41.1789 35.3438L38.2231 34.8313ZM18.9853 22.6444C20.0623 23.7215 21.6405 23.8136 22.8374 23.2329L21.5279 20.5338C21.4281 20.5822 21.3269 20.5948 21.248 20.5847C21.1743 20.5752 21.1324 20.5489 21.1066 20.5231L18.9853 22.6444ZM19.1002 18.1006C17.6922 19.3297 17.7579 21.4171 18.9853 22.6444L21.1066 20.5231C21.0668 20.4833 21.0539 20.4393 21.0543 20.4065C21.0545 20.3908 21.0576 20.3813 21.0596 20.377C21.0608 20.3743 21.0632 20.3692 21.0731 20.3606L19.1002 18.1006ZM74.7654 45.3258C76.4204 43.6708 76.4204 40.9876 74.7654 39.3326L72.6441 41.4539C73.1275 41.9373 73.1275 42.7211 72.6441 43.2044L74.7654 45.3258ZM74.4429 46.7537C74.1376 46.4485 74.1376 45.9535 74.4429 45.6483L72.3216 43.527C70.8447 45.0038 70.8447 47.3982 72.3216 48.8751L74.4429 46.7537ZM75.5484 46.7537C75.2431 47.059 74.7482 47.059 74.4429 46.7537L72.3216 48.8751C73.7984 50.3519 76.1929 50.3519 77.6697 48.8751L75.5484 46.7537ZM62.6412 58.5554C62.9465 58.8607 62.9465 59.3556 62.6412 59.6609L64.7625 61.7822C66.2394 60.3054 66.2394 57.9109 64.7625 56.4341L62.6412 58.5554ZM87.4396 56.2489C89.197 58.0063 89.197 60.8555 87.4396 62.6129L89.5609 64.7342C92.4899 61.8053 92.4899 57.0565 89.5609 54.1276L87.4396 56.2489ZM61.5358 58.5554C61.841 58.2502 62.336 58.2502 62.6412 58.5554L64.7625 56.4341C63.2857 54.9573 60.8913 54.9573 59.4144 56.4341L61.5358 58.5554ZM81.8644 46.4311C80.2094 44.7761 77.5261 44.7761 75.871 46.4311L77.9923 48.5524C78.4758 48.069 79.2596 48.069 79.7431 48.5524L81.8644 46.4311Z" fill="#97C705"/>
<path d="M14.4562 95L53.9384 55.5177L42.4822 44.0615L2.99995 83.5437" stroke="#97C705" stroke-width="3" stroke-linecap="round"/>
</svg>
