<svg width="79" height="87" viewBox="0 0 79 87" fill="none" xmlns="http://www.w3.org/2000/svg">
<circle cx="39.821" cy="51.6055" r="33.3945" stroke="#97C705" stroke-width="3"/>
<path d="M65.2743 58.3465C69.0052 44.4227 60.7422 30.1108 46.8184 26.3799" stroke="#97C705" stroke-width="3" stroke-linecap="round" stroke-dasharray="3 8"/>
<path d="M40.1453 18.8594L40.1453 21.4531" stroke="#97C705" stroke-width="3" stroke-linecap="round"/>
<path d="M40.1453 82.4062L40.1453 85" stroke="#97C705" stroke-width="3" stroke-linecap="round"/>
<path d="M73.2156 51.9297L70.6218 51.9297" stroke="#97C705" stroke-width="3" stroke-linecap="round"/>
<path d="M9.6687 51.9297L7.07495 51.9297" stroke="#97C705" stroke-width="3" stroke-linecap="round"/>
<path d="M18.4695 73.4453L16.6239 75.2909" stroke="#97C705" stroke-width="3" stroke-linecap="round"/>
<path d="M63.502 75.291L61.6564 73.4454" stroke="#97C705" stroke-width="3" stroke-linecap="round"/>
<path d="M18.4695 30.2588L16.6239 28.4132" stroke="#97C705" stroke-width="3" stroke-linecap="round"/>
<path d="M40.1453 26.6406V51.772L53.114 63.6016" stroke="#97C705" stroke-width="3" stroke-linecap="round"/>
<rect x="66.4802" y="19.4795" width="7.83019" height="7.83019" transform="rotate(45 66.4802 19.4795)" stroke="#97C705" stroke-width="3"/>
<rect width="7.83019" height="7.83019" transform="matrix(-0.707107 0.707107 0.707107 0.707107 12.9663 19.4795)" stroke="#97C705" stroke-width="3"/>
<rect width="12.3203" height="11.6719" transform="matrix(-1 -2.18557e-08 -2.18557e-08 1 45.9812 6.53906)" stroke="#97C705" stroke-width="3"/>
<rect x="66.4802" y="15.0498" width="14.0943" height="3.13208" rx="1.56604" transform="rotate(45 66.4802 15.0498)" stroke="#97C705" stroke-width="3"/>
<rect width="14.0943" height="3.13208" rx="1.56604" transform="matrix(-0.707107 0.707107 0.707107 0.707107 12.9663 15.0498)" stroke="#97C705" stroke-width="3"/>
<rect width="20.1016" height="4.53906" rx="2.26953" transform="matrix(-1 -2.18557e-08 -2.18557e-08 1 49.8718 2)" stroke="#97C705" stroke-width="3"/>
<path d="M63.502 28.4131L61.6564 30.2587" stroke="#97C705" stroke-width="4" stroke-linecap="round"/>
</svg>
