<svg width="20" height="19" viewBox="0 0 20 19" fill="none" xmlns="http://www.w3.org/2000/svg">
<path d="M4.05062 3.05787L4.71462 1.72986C5.01987 1.11936 5.83352 0.987322 6.31616 1.46996L9.12369 4.2775C9.51421 4.66802 9.51421 5.30118 9.12369 5.69171L8.07099 6.7444C7.96122 6.85418 7.87331 6.98702 7.84662 7.13995C7.52149 9.00236 10.3087 11.7896 12.1711 11.4645C12.3241 11.4378 12.4569 11.3499 12.5667 11.2401L13.6194 10.1874C14.0099 9.79688 14.6431 9.79688 15.0336 10.1874L17.9165 13.0703C18.3766 13.5304 18.2899 14.3158 17.7115 14.6136C17.3367 14.8066 17.0165 14.9334 16.2532 15.2605C11.7576 17.1871 2.12392 7.55354 4.05062 3.05787Z" stroke="white" stroke-linejoin="round"/>
</svg>
