<svg width="44" height="44" viewBox="0 0 44 44" fill="none" xmlns="http://www.w3.org/2000/svg">
<rect width="44" height="44" fill="url(#paint0_radial)"/>
<path d="M8.19995 16.7C8.29995 16.1 8.39995 15.4 8.49995 14.8C8.89995 11.3 11.9 8.59995 15.4 8.59995C19.8 8.39995 24.3 8.39995 28.7 8.59995C32.6 8.59995 35.7 11.8 35.7 15.7C35.8 20 35.8 24.2 35.7 28.5C35.7 32.4 32.6 35.5999 28.7 35.5999C24.3 35.7999 19.8 35.7999 15.4 35.5999C11.5 35.4999 8.39995 32.2999 8.29995 28.5C8.29995 28.2 8.19995 27.7999 8.19995 27.5V16.7ZM22 33.0999C24 33.0999 26.1 33.1999 28.1 33.0999C30.8 33.1999 33.1999 31.1 33.2999 28.4C33.2999 28.1999 33.2999 28.1 33.2999 27.9C33.4 23.9 33.4 20 33.2999 16C33.4 13.3 31.4 11 28.7 10.8C28.5 10.8 28.3 10.8 28.1 10.8C24.1 10.7 20 10.7 16 10.8C13.3 10.6 11 12.7 10.8 15.4C10.8 15.6 10.8 15.8 10.8 15.9C10.7 19.9 10.7 23.9 10.8 27.9C10.9 31 12.8 32.9 16 33C18 33.2 20 33.0999 22 33.0999Z" fill="white"/>
<path d="M22 15C18.1 15 15 18.2 15 22C15 25.8 18.2 29 22 29C25.8 29 29 25.8 29 22C29 18.1 25.9 15 22 15ZM22 26.6C19.4 26.6 17.4 24.5 17.4 22C17.4 19.5 19.5 17.4 22 17.4C24.6 17.4 26.6 19.5 26.6 22C26.6 24.6 24.6 26.6 22 26.6Z" fill="white"/>
<path d="M31.1 14.5999C31.1 15.4999 30.3 16.2999 29.4 16.2999C28.5 16.2999 27.7 15.4999 27.7 14.5999C27.7 13.6999 28.5 12.8999 29.4 12.8999C30.4 12.9999 31.1 13.6999 31.1 14.5999Z" fill="white"/>
<defs>
<radialGradient id="paint0_radial" cx="0" cy="0" r="1" gradientUnits="userSpaceOnUse" gradientTransform="translate(8.5 39.5) rotate(-49.1849) scale(43.6033 72.0001)">
<stop offset="0.00063" stop-color="#FAE100"/>
<stop offset="0.0544" stop-color="#FADC04"/>
<stop offset="0.1167" stop-color="#FBCE0E"/>
<stop offset="0.1829" stop-color="#FCB720"/>
<stop offset="0.2514" stop-color="#FE9838"/>
<stop offset="0.3054" stop-color="#FF7950"/>
<stop offset="0.4928" stop-color="#FF1C74"/>
<stop offset="1" stop-color="#6C1CD1"/>
</radialGradient>
</defs>
</svg>
