<svg width="17" height="17" viewBox="0 0 17 17" fill="none" xmlns="http://www.w3.org/2000/svg">
<path d="M16 8.5C16 12.6421 12.6421 16 8.5 16C4.35786 16 1 12.6421 1 8.5M16 8.5C16 4.35786 12.6421 1 8.5 1C4.35786 1 1 4.35786 1 8.5M16 8.5H1M3 13.1204C4.36975 12.4313 6.32695 12 8.5 12C10.6731 12 12.6303 12.4313 14 13.1204M3 3.87958C4.36974 4.56873 6.32695 5.00001 8.5 5.00001C10.6731 5.00001 12.6303 4.56873 14 3.87958" stroke="white"/>
<ellipse cx="8.5" cy="8.5" rx="3.5" ry="7.5" stroke="white"/>
</svg>
