<svg width="44" height="44" viewBox="0 0 44 44" fill="none" xmlns="http://www.w3.org/2000/svg">
<rect width="44" height="44" fill="#0089D2"/>
<path fill-rule="evenodd" clip-rule="evenodd" d="M27.6652 33.1797C27.8479 33.3098 28.0599 33.3931 28.2823 33.4223C28.5048 33.4514 28.731 33.4255 28.9411 33.3468C29.15 33.2679 29.3358 33.1379 29.4815 32.9688C29.6273 32.7997 29.7284 32.5968 29.7756 32.3786C30.7772 27.6713 33.2069 15.7568 34.1186 11.4748C34.1523 11.3157 34.1422 11.1504 34.0894 10.9966C34.0366 10.8428 33.9432 10.7061 33.8189 10.6011C33.6939 10.4951 33.543 10.4242 33.3815 10.3959C33.2201 10.3675 33.054 10.3827 32.9003 10.4398C28.0674 12.2286 13.1838 17.813 7.10029 20.0641C6.91217 20.1322 6.75042 20.2581 6.63821 20.4237C6.526 20.5893 6.46908 20.7862 6.4756 20.9862C6.48213 21.1862 6.55176 21.3789 6.67453 21.5369C6.7973 21.6949 6.96691 21.8099 7.15907 21.8656C9.88731 22.6817 13.4685 23.817 13.4685 23.817C13.4685 23.817 15.1421 28.8712 16.0146 31.4415C16.0661 31.6012 16.1567 31.7455 16.278 31.8614C16.3994 31.9774 16.5477 32.0612 16.7096 32.1054C16.8729 32.1479 17.0442 32.1482 17.2077 32.1065C17.3712 32.0648 17.5214 31.9823 17.6444 31.8668C19.0459 30.5436 21.2128 28.4977 21.2128 28.4977C21.2128 28.4977 25.33 31.5164 27.6652 33.1797ZM14.9749 23.1784L16.9102 29.5616L17.3401 25.5194C17.3401 25.5194 24.8171 18.7755 29.0794 14.9315C29.1396 14.8773 29.177 14.8024 29.184 14.7217C29.1911 14.6411 29.1673 14.5608 29.1174 14.497C29.0672 14.4331 28.995 14.3902 28.915 14.3766C28.8349 14.363 28.7526 14.3796 28.6841 14.4232C23.744 17.5779 14.9749 23.1784 14.9749 23.1784Z" fill="white"/>
</svg>
