<svg width="44" height="44" viewBox="0 0 44 44" fill="none" xmlns="http://www.w3.org/2000/svg">
<rect width="44" height="44" fill="#6F3FAA"/>
<path d="M33.6382 15.4622L33.631 15.4332C33.2031 14.1296 32.4624 12.9507 31.4737 11.9994C30.485 11.0482 29.2784 10.3536 27.9592 9.97633L27.9318 9.97066C24.013 9.21974 19.9872 9.21974 16.0684 9.97066L16.0401 9.97633C14.7212 10.3539 13.5147 11.0485 12.526 11.9998C11.5373 12.951 10.7966 14.1298 10.3684 15.4332L10.3619 15.4622C9.63522 18.7569 9.63522 22.1705 10.3619 25.4652L10.3684 25.4942C10.782 26.7455 11.4818 27.883 12.4122 28.8164C13.3425 29.7498 14.4778 30.4534 15.7277 30.871V33.5238C15.7277 33.7365 15.7913 33.9444 15.9103 34.1207C16.0294 34.297 16.1985 34.4336 16.3958 34.5131C16.5932 34.5925 16.8098 34.6111 17.0178 34.5665C17.2258 34.5218 17.4157 34.416 17.563 34.2626L20.2507 31.4688C20.8337 31.5014 21.417 31.5196 22.0001 31.5196C23.9906 31.5191 25.9766 31.3306 27.9317 30.9568L27.9592 30.9511C29.2783 30.5739 30.4849 29.8793 31.4736 28.928C32.4623 27.9768 33.203 26.7978 33.6309 25.4943L33.6381 25.4653C34.3648 22.1705 34.3648 18.757 33.6382 15.4622ZM31.5112 24.984C31.1769 25.884 30.643 26.6965 29.9496 27.3605C29.2562 28.0246 28.4214 28.5228 27.5078 28.8179C25.4289 29.2147 23.3132 29.3856 21.1976 29.3277C21.1769 29.3271 21.1563 29.3308 21.1371 29.3385C21.1179 29.3463 21.1006 29.358 21.0862 29.3729C20.787 29.6799 19.1238 31.3874 19.1238 31.3874L17.0365 33.5297C17.0028 33.5649 16.9593 33.5892 16.9117 33.5995C16.864 33.6098 16.8144 33.6056 16.7692 33.5874C16.7239 33.5693 16.6851 33.538 16.6578 33.4976C16.6305 33.4573 16.6159 33.4097 16.6158 33.3609V28.9664C16.6157 28.9312 16.6033 28.8972 16.5808 28.8701C16.5584 28.8431 16.5272 28.8247 16.4926 28.8181L16.4914 28.8178C15.5779 28.5226 14.7431 28.0243 14.0497 27.3603C13.3564 26.6963 12.8224 25.8838 12.488 24.9839C11.834 22.0059 11.834 18.9214 12.488 15.9434C12.8224 15.0435 13.3564 14.231 14.0497 13.567C14.7431 12.903 15.5779 12.4047 16.4914 12.1095C20.1307 11.4143 23.8686 11.4143 27.5079 12.1095C28.4215 12.4045 29.2564 12.9027 29.9498 13.5667C30.6432 14.2308 31.1771 15.0434 31.5113 15.9434C32.166 18.9214 32.166 22.006 31.5111 24.984L31.5112 24.984Z" fill="white"/>
<path d="M25.4778 27.0125C25.232 26.9378 24.9978 26.8877 24.7802 26.7976C22.5102 25.9418 20.4671 24.5763 18.8082 22.8063C17.8926 21.7495 17.1242 20.5736 16.524 19.3106C16.2308 18.7147 15.9837 18.0955 15.7319 17.4802C15.6607 17.202 15.6664 16.9096 15.7482 16.6343C15.8301 16.359 15.985 16.1111 16.1966 15.9169C16.5368 15.5254 16.956 15.2104 17.4267 14.9927C17.5926 14.9095 17.7825 14.8873 17.9631 14.9301C18.1437 14.9729 18.3035 15.078 18.4143 15.2269C18.9961 15.8851 19.5081 16.6018 19.9423 17.3655C20.0816 17.5878 20.1296 17.8553 20.0765 18.1122C20.0233 18.3691 19.873 18.5955 19.657 18.7443C19.5413 18.8228 19.436 18.9151 19.3283 19.0038C19.2315 19.0765 19.1476 19.1649 19.0801 19.2654C19.0246 19.3597 18.9915 19.4654 18.9832 19.5745C18.9749 19.6836 18.9917 19.7931 19.0322 19.8947C19.2775 20.6812 19.6905 21.4052 20.2427 22.0166C20.7949 22.628 21.4732 23.1124 22.2307 23.4362C22.4818 23.5734 22.7645 23.642 23.0504 23.6352C23.5514 23.5766 23.7137 23.027 24.0648 22.7399C24.2251 22.6074 24.4243 22.5308 24.6321 22.5217C24.8399 22.5126 25.0449 22.5715 25.2162 22.6895C25.586 22.9236 25.9444 23.1747 26.3007 23.4287C26.654 23.6699 26.9946 23.9292 27.3211 24.2057C27.4716 24.3185 27.5782 24.4803 27.6224 24.6632C27.6667 24.8461 27.6458 25.0387 27.5634 25.2079C27.2667 25.8876 26.7551 26.4511 26.1073 26.8121C25.9042 26.8985 25.6934 26.9656 25.4778 27.0125C25.232 26.9378 25.6914 26.9467 25.4778 27.0125Z" fill="white"/>
<path d="M22.0061 14.2163C23.4133 14.2189 24.7746 14.7169 25.8515 15.6228C26.9283 16.5287 27.6519 17.7847 27.8953 19.1707C27.9837 19.6674 28.0152 20.1751 28.0545 20.6793C28.0635 20.729 28.0617 20.78 28.0493 20.8289C28.037 20.8778 28.0143 20.9235 27.9828 20.9629C27.9514 21.0023 27.9118 21.0345 27.8669 21.0574C27.8219 21.0803 27.7726 21.0933 27.7222 21.0956C27.4859 21.0985 27.3796 20.9006 27.3641 20.6888C27.3338 20.2692 27.3127 19.8477 27.2549 19.4318C27.0937 18.3476 26.5983 17.3407 25.8378 16.5514C25.0773 15.7621 24.0895 15.2297 23.0121 15.0283C22.683 14.9696 22.3465 14.9542 22.0131 14.9193C21.8025 14.8972 21.5266 14.8844 21.48 14.6225C21.4735 14.572 21.4778 14.5206 21.4927 14.4718C21.5076 14.4231 21.5326 14.378 21.5662 14.3397C21.5998 14.3013 21.6412 14.2705 21.6875 14.2494C21.7339 14.2282 21.7843 14.2171 21.8352 14.2169C21.8919 14.2135 21.949 14.2162 22.0061 14.2164V14.2163Z" fill="white"/>
<path d="M26.4868 20.025C26.4824 20.094 26.4727 20.1625 26.4578 20.2299C26.4383 20.2963 26.3987 20.3551 26.3445 20.3981C26.2902 20.4411 26.2239 20.4662 26.1548 20.4699C26.0857 20.4737 26.0171 20.4559 25.9585 20.4191C25.8998 20.3823 25.8541 20.3282 25.8275 20.2643C25.8003 20.1719 25.7884 20.0757 25.7921 19.9794C25.8013 19.3529 25.6455 18.735 25.3404 18.1877C25.0127 17.6229 24.5265 17.1667 23.942 16.8757C23.5891 16.7081 23.2136 16.5929 22.8275 16.5337C22.6595 16.5058 22.4897 16.4891 22.3208 16.4655C22.2765 16.4636 22.2331 16.4525 22.1934 16.433C22.1536 16.4134 22.1183 16.3858 22.0898 16.352C22.0612 16.3181 22.0399 16.2787 22.0274 16.2362C22.0148 16.1937 22.0111 16.1491 22.0167 16.1051C22.0169 16.0606 22.0265 16.0166 22.0449 15.9761C22.0633 15.9356 22.09 15.8993 22.1233 15.8698C22.1566 15.8402 22.1957 15.818 22.2382 15.8046C22.2806 15.7912 22.3254 15.7869 22.3697 15.792C23.0425 15.8174 23.7018 15.9891 24.3015 16.2952C24.8795 16.5857 25.3763 17.0151 25.7474 17.545C26.1185 18.0748 26.3522 18.6885 26.4276 19.331C26.4368 19.393 26.4516 19.4541 26.4563 19.5162C26.4678 19.6693 26.4751 19.8227 26.4868 20.025C26.4819 20.0617 26.4751 19.8227 26.4868 20.025Z" fill="white"/>
<path d="M24.6531 19.9537C24.6025 19.9592 24.5513 19.9542 24.5028 19.9387C24.4544 19.9233 24.4096 19.8979 24.3716 19.8642C24.3335 19.8304 24.3029 19.7891 24.2818 19.7428C24.2607 19.6966 24.2495 19.6464 24.2489 19.5955C24.2359 19.4372 24.2127 19.2799 24.1795 19.1246C24.1123 18.8191 23.9391 18.5472 23.6906 18.3571C23.57 18.2704 23.4352 18.2053 23.2922 18.1648C23.1113 18.1125 22.9233 18.1269 22.7429 18.0827C22.6993 18.0751 22.6576 18.0589 22.6202 18.0352C22.5828 18.0114 22.5505 17.9805 22.525 17.9442C22.4996 17.9079 22.4816 17.8669 22.4721 17.8237C22.4625 17.7804 22.4616 17.7357 22.4693 17.6921C22.486 17.6071 22.5333 17.5312 22.6021 17.4788C22.671 17.4263 22.7567 17.4009 22.843 17.4074C23.1127 17.4008 23.381 17.4481 23.6322 17.5465C23.8834 17.6449 24.1124 17.7925 24.3058 17.9806C24.4992 18.1686 24.6531 18.3934 24.7586 18.6417C24.864 18.89 24.9188 19.1569 24.9198 19.4266C24.9335 19.5216 24.9325 19.6182 24.9167 19.7129C24.9054 19.7764 24.8734 19.8345 24.8257 19.878C24.7781 19.9215 24.7174 19.9481 24.6531 19.9537C24.7653 19.9461 24.4063 19.958 24.6531 19.9537Z" fill="white"/>
</svg>
