<svg width="178" height="61" viewBox="0 0 178 61" fill="none" xmlns="http://www.w3.org/2000/svg">
<path d="M49.7763 29.9758H31.3792V49.5817H49.7763V29.9758Z" fill="#A3D900"/>
<path fill-rule="evenodd" clip-rule="evenodd" d="M4.83499 7.46896C1.61972 8.50849 0 10.2733 0 12.7149C0 13.6336 0.241749 14.4555 0.749423 15.2049C2.27244 17.2356 4.27896 18.251 6.74481 18.251H12.5468C13.0545 18.251 13.5863 18.2993 14.1665 18.396C16.0038 19.0246 16.9225 19.9432 16.9225 21.1278V21.3454L16.8741 21.7564C16.3664 23.4244 14.8434 24.2464 12.3534 24.2464H0.14505C0.0725248 24.2464 0.0241749 24.2947 0 24.3914V26.688C0 26.7847 0.0483499 26.8331 0.14505 26.8331H12.6918C13.5621 26.8331 14.3116 26.7606 14.9643 26.6155C18.4213 25.6002 20.1619 23.8354 20.1619 21.297V21.1036C20.1619 20.7168 20.0652 20.2575 19.896 19.6773C18.5905 17.0181 16.2214 15.6884 12.7402 15.6884H7.15578C4.98004 15.6884 3.67459 14.7214 3.23944 12.7875C3.23944 12.5457 3.28779 12.2798 3.38449 11.9897C4.13392 10.515 5.31849 9.76558 6.93821 9.76558H20.0169C20.1136 9.76558 20.1619 9.71723 20.1619 9.62053V7.32391C20.1619 7.25139 20.1136 7.20304 20.0169 7.17886H7.05908C6.33384 7.17886 5.60859 7.27556 4.83499 7.46896Z" fill="#F5F5F5"/>
<path fill-rule="evenodd" clip-rule="evenodd" d="M22.0718 7.3239V26.6639C22.0718 26.7606 22.1201 26.8089 22.2168 26.8089H24.6585C24.7552 26.8089 24.8035 26.7606 24.8035 26.6639V7.3239C24.8035 7.25138 24.7552 7.20303 24.6585 7.17886H22.1927C22.1201 7.17886 22.0718 7.22721 22.0718 7.3239ZM22.0718 0.748321V3.72184C22.0718 3.81854 22.1201 3.86689 22.2168 3.86689H24.6585C24.7552 3.86689 24.8035 3.81854 24.8035 3.72184V0.748321C24.8035 0.675796 24.7552 0.627446 24.6585 0.603271H22.1927C22.1201 0.603271 22.0718 0.651621 22.0718 0.748321Z" fill="#F5F5F5"/>
<path fill-rule="evenodd" clip-rule="evenodd" d="M29.9767 14.939C31.4998 11.5062 33.9173 9.78976 37.2292 9.78976C38.0754 9.78976 38.994 9.95898 39.9852 10.2974C43.2246 11.8446 44.8443 14.2138 44.8443 17.4049V17.4774C44.8443 18.5169 44.5784 19.6531 44.0466 20.8861C42.3301 23.642 40.1786 25.02 37.5919 25.02H36.8666C36.0447 25.02 35.1018 24.8024 34.0623 24.3672C31.113 22.7475 29.6383 20.4993 29.6383 17.6224V17.1148C29.6383 16.5587 29.7592 15.8335 29.9767 14.939ZM26.7373 7.34809L26.7615 49.5817C26.7373 49.6059 29.6383 49.5817 29.6383 49.5817L29.6625 34.4724V24.609C31.9349 26.688 34.4733 27.7276 37.2776 27.7276C38.8248 27.7276 40.3961 27.3649 42.0159 26.6397C45.8839 24.4398 47.8179 21.3937 47.8179 17.5016C47.8179 15.5434 47.3102 13.7544 46.2948 12.1347C43.9982 8.84693 41.0489 7.17886 37.471 7.17886H36.9633C34.2557 7.17886 31.8382 8.21839 29.6383 10.2974V7.34809C29.6383 7.25139 29.5899 7.20304 29.4932 7.20304H26.8824C26.7857 7.17886 26.7373 7.25139 26.7373 7.34809Z" fill="#F5F5F5"/>
<path fill-rule="evenodd" clip-rule="evenodd" d="M51.7344 30.1209V49.4609C51.7344 49.5576 51.7827 49.6059 51.8794 49.6059H54.3936C54.4903 49.6059 54.5387 49.5576 54.5387 49.4609V39.5008C54.5387 38.9448 54.6595 38.2679 54.8771 37.4217C56.3518 34.1339 58.6726 32.49 61.8395 32.49C62.6373 32.49 63.5317 32.6593 64.4746 32.9735C67.569 34.4724 69.1403 36.7448 69.1403 39.7909V49.4609C69.1403 49.5576 69.1887 49.6059 69.2854 49.6059H71.7996C71.8963 49.6059 71.9446 49.5576 71.9446 49.4609V39.9359C71.9446 38.3162 71.6062 36.8174 70.9051 35.4152C68.7535 31.8131 65.8042 30 62.0571 30H61.5736C58.9869 30 56.6419 30.9912 54.5387 32.9977V30.1451C54.5387 30.0726 54.4903 30.0242 54.3936 30H51.8794C51.7827 29.9759 51.7585 30.0242 51.7344 30.1209Z" fill="#F5F5F5"/>
<path fill-rule="evenodd" clip-rule="evenodd" d="M76.9247 37.4459C78.3994 34.1581 80.7202 32.5142 83.8871 32.5142C84.8299 32.5142 85.8211 32.7318 86.8848 33.1186C89.7616 34.7141 91.1879 36.8899 91.1879 39.67C91.1879 41.2414 90.777 42.6435 89.9308 43.9006C88.2869 46.028 86.4013 47.0917 84.2497 47.0917H83.5487C82.5091 47.0917 81.3729 46.7774 80.14 46.1247C77.7708 44.4808 76.5863 42.4985 76.5863 40.1535V39.5249C76.5863 38.9689 76.7072 38.2678 76.9247 37.4459ZM78.9554 31.1846C75.5226 33.4087 73.8062 36.1646 73.8062 39.4524V40.0084C73.8062 42.0875 74.5314 44.0698 75.9819 45.9796C78.2785 48.3971 80.6718 49.6059 83.1377 49.6059H84.5157C86.8123 49.6059 89.0364 48.6147 91.2121 46.6082V49.4608C91.2121 49.5575 91.2605 49.6059 91.3572 49.6059H93.8714C93.9681 49.6059 94.0164 49.5575 94.0164 49.4608V30.1209C94.0164 30.0484 93.9681 30 93.8714 29.9758H91.3572C91.2846 29.9758 91.2363 30.0242 91.2121 30.1209V32.9735C89.0605 30.9912 86.6914 29.9758 84.1047 29.9758H83.6212C82.1223 29.9758 80.5751 30.3868 78.9554 31.1846Z" fill="#F5F5F5"/>
<path fill-rule="evenodd" clip-rule="evenodd" d="M95.8777 30.1209V49.4608C95.8777 49.5575 95.926 49.6059 96.0227 49.6059H98.5369C98.6336 49.6059 98.682 49.5575 98.682 49.4608V39.5008C98.682 38.9447 98.8029 38.2678 99.0204 37.4217C100.495 34.1339 102.816 32.49 105.983 32.49C106.781 32.49 107.675 32.6592 108.618 32.9735C111.712 34.4724 113.284 36.7448 113.284 39.7909V49.4608C113.284 49.5575 113.332 49.6059 113.429 49.6059H115.943C116.04 49.6059 116.088 49.5575 116.088 49.4608V39.4524C116.088 38.6063 116.33 37.6635 116.789 36.5998C118.385 33.868 120.536 32.49 123.268 32.49C124.356 32.49 125.299 32.6834 126.121 33.046C129.191 34.4482 130.714 36.769 130.714 40.081V49.4608C130.714 49.5575 130.762 49.6059 130.859 49.6059H133.3C133.397 49.6059 133.446 49.5575 133.446 49.4608V39.0898C133.446 37.6876 132.938 36.1646 131.923 34.4965C129.747 31.4747 126.991 29.9758 123.655 29.9758H123.171C119.811 29.9758 116.958 31.5714 114.686 34.7866C114.686 34.7141 114.637 34.6174 114.541 34.4965C112.365 31.4747 109.585 29.9758 106.249 29.9758H105.765C103.179 29.9758 100.834 30.967 98.7303 32.9735V30.1209C98.7303 30.0484 98.682 30 98.5853 29.9758H96.0711C95.926 29.9758 95.8777 30.0242 95.8777 30.1209Z" fill="#F5F5F5"/>
<path fill-rule="evenodd" clip-rule="evenodd" d="M138.474 37.4459C139.949 34.1581 142.269 32.5142 145.436 32.5142C146.355 32.5142 147.37 32.7318 148.434 33.1186C151.311 34.7141 152.737 36.8899 152.737 39.67C152.737 41.2414 152.326 42.6435 151.48 43.9006C149.836 46.028 147.951 47.0917 145.799 47.0917H145.098C144.058 47.0917 142.922 46.7774 141.689 46.1247C139.32 44.4808 138.136 42.4985 138.136 40.1535V39.5249C138.136 38.9689 138.232 38.2678 138.474 37.4459ZM140.505 31.1846C137.072 33.4087 135.355 36.1646 135.355 39.4524V40.0084C135.355 42.0875 136.081 44.0698 137.531 45.9796C139.828 48.3971 142.221 49.6059 144.687 49.6059H146.065C148.362 49.6059 150.586 48.6147 152.761 46.6082V49.4608C152.761 49.5575 152.81 49.6059 152.906 49.6059H155.421C155.517 49.6059 155.566 49.5575 155.566 49.4608V30.1209C155.566 30.0484 155.517 30 155.421 29.9758H152.906C152.834 29.9758 152.786 30.0242 152.761 30.1209V32.9735C150.61 30.9912 148.241 29.9758 145.654 29.9758H145.17C143.672 29.9758 142.124 30.3868 140.505 31.1846Z" fill="#F5F5F5"/>
<path fill-rule="evenodd" clip-rule="evenodd" d="M162.262 30.2659C159.023 31.3296 157.427 33.0702 157.427 35.5361C157.427 36.4547 157.669 37.2767 158.177 38.0261C159.7 40.0326 161.706 41.048 164.172 41.048H169.974C170.482 41.048 171.014 41.0963 171.594 41.193C173.431 41.8216 174.35 42.7402 174.35 43.949V44.1665L174.301 44.5775C173.794 46.2456 172.271 47.0675 169.781 47.0675H157.572C157.5 47.0675 157.451 47.1159 157.427 47.2126V49.5092C157.427 49.6059 157.476 49.6542 157.572 49.6542H170.119C170.989 49.6542 171.739 49.5817 172.392 49.4367C175.849 48.4213 177.589 46.6565 177.589 44.1182V43.8764C177.589 43.4896 177.492 43.0303 177.323 42.4501C176.018 39.7909 173.649 38.4612 170.167 38.4612H164.583C162.407 38.4612 161.102 37.4942 160.667 35.5602C160.667 35.3185 160.715 35.0526 160.812 34.7625C161.561 33.2878 162.746 32.5384 164.365 32.5384H177.444C177.541 32.5384 177.589 32.49 177.589 32.3933V30.0967C177.589 30.0242 177.541 29.9758 177.444 29.9517H164.486C163.761 29.9758 163.012 30.0725 162.262 30.2659Z" fill="#F5F5F5"/>
<path d="M31.4757 58.6231C31.1856 58.744 30.5813 58.9132 29.856 58.9132C29.0583 58.9132 28.4055 58.7198 27.8979 58.2363C27.4385 57.8012 27.1726 57.1001 27.1726 56.3023C27.1726 54.7551 28.2363 53.6189 30.0011 53.6189C30.6054 53.6189 31.0889 53.7398 31.3065 53.8607L31.1373 54.4167C30.8472 54.2958 30.5087 54.1991 29.9769 54.1991C28.7198 54.1991 27.8737 54.9969 27.8737 56.3023C27.8737 57.632 28.6715 58.4056 29.8802 58.4056C30.3153 58.4056 30.6296 58.333 30.7747 58.2605V56.7133H29.711V56.1815H31.4274V58.6231H31.4757Z" fill="white"/>
<path d="M35.1019 57.1243C35.1261 58.0429 35.7063 58.4297 36.3832 58.4297C36.8667 58.4297 37.181 58.333 37.4227 58.2363L37.5436 58.7198C37.3019 58.8165 36.8909 58.9616 36.2865 58.9616C35.1261 58.9616 34.4492 58.188 34.4492 57.0759C34.4492 55.9397 35.1261 55.0694 36.214 55.0694C37.4469 55.0694 37.7612 56.1331 37.7612 56.8342C37.7612 56.9792 37.7612 57.0759 37.737 57.1484H35.1019V57.1243ZM37.0843 56.6408C37.0843 56.2056 36.9151 55.5529 36.1415 55.5529C35.4404 55.5529 35.1503 56.1814 35.1019 56.6408H37.0843Z" fill="white"/>
<path d="M40.7832 56.2782C40.7832 55.8431 40.7832 55.4563 40.759 55.1178H41.3634L41.3876 55.8673H41.4118C41.581 55.3596 41.992 55.0453 42.4513 55.0453C42.5238 55.0453 42.5722 55.0453 42.6447 55.0695V55.7222C42.5722 55.698 42.4996 55.698 42.4029 55.698C41.9194 55.698 41.581 56.0607 41.4843 56.5683C41.4601 56.665 41.4601 56.7859 41.4601 56.8826V58.8891H40.7832V56.2782Z" fill="white"/>
<path d="M46.3193 54.0783C46.3193 54.32 46.15 54.4893 45.8841 54.4893C45.6424 54.4893 45.4731 54.2959 45.4731 54.0783C45.4731 53.8365 45.6424 53.6431 45.9083 53.6431C46.15 53.6431 46.3193 53.8365 46.3193 54.0783ZM45.5457 58.8649V55.1178H46.2226V58.8649H45.5457Z" fill="white"/>
<path d="M52.1935 57.9705C52.1935 58.2848 52.2177 58.6232 52.2418 58.865H51.6375L51.5891 58.3815H51.5649C51.3474 58.6716 50.9606 58.9375 50.4287 58.9375C49.6793 58.9375 49.2925 58.4056 49.2925 57.8738C49.2925 56.9793 50.0903 56.4716 51.5408 56.4716V56.3991C51.5408 56.109 51.4441 55.5288 50.6946 55.5288C50.332 55.5288 49.9694 55.6255 49.7035 55.8189L49.5584 55.3596C49.8727 55.1662 50.332 55.0453 50.7913 55.0453C51.9276 55.0453 52.2176 55.8189 52.2176 56.5683V57.9705H52.1935ZM51.5408 56.9551C50.7913 56.931 49.9452 57.076 49.9452 57.8013C49.9452 58.2606 50.2353 58.454 50.5738 58.454C51.0573 58.454 51.3957 58.1397 51.4924 57.8254C51.5166 57.7529 51.5166 57.6804 51.5166 57.6079V56.9551H51.5408Z" fill="white"/>
<path d="M58.6484 57.8253C58.6484 58.2121 58.6484 58.5506 58.6725 58.8649H58.0682L58.0198 58.2605C57.8506 58.5506 57.4396 58.9616 56.7869 58.9616C56.2067 58.9616 55.5056 58.6231 55.5056 57.3177V55.1177H56.1825V57.1726C56.1825 57.8737 56.4001 58.3814 57.0286 58.3814C57.488 58.3814 57.8022 58.0671 57.9231 57.7528C57.9715 57.6561 57.9956 57.5352 57.9956 57.4144V55.1177H58.6725V57.8253H58.6484Z" fill="white"/>
<path d="M61.8877 58.188C62.1053 58.3088 62.4438 58.4539 62.7822 58.4539C63.2657 58.4539 63.5075 58.2121 63.5075 57.8979C63.5075 57.5836 63.3141 57.4144 62.8306 57.221C62.1537 56.9792 61.8394 56.6166 61.8394 56.1573C61.8394 55.5529 62.3229 55.0694 63.1207 55.0694C63.5075 55.0694 63.8217 55.1661 64.0393 55.3111L63.8701 55.7946C63.725 55.6979 63.4591 55.5771 63.0965 55.5771C62.6855 55.5771 62.4679 55.8188 62.4679 56.0847C62.4679 56.399 62.6855 56.5441 63.169 56.7375C63.8217 56.9792 64.1602 57.2935 64.1602 57.8495C64.1602 58.5264 63.6525 58.9857 62.758 58.9857C62.3471 58.9857 61.9603 58.889 61.6943 58.7198L61.8877 58.188Z" fill="white"/>
<path d="M68.0038 54.0783C68.0038 54.32 67.8346 54.4893 67.5687 54.4893C67.3269 54.4893 67.1577 54.2959 67.1577 54.0783C67.1577 53.8365 67.3269 53.6431 67.5929 53.6431C67.8346 53.6431 68.0038 53.8365 68.0038 54.0783ZM67.2302 58.8649V55.1178H67.9071V58.8649H67.2302Z" fill="white"/>
<path d="M73.8785 57.9705C73.8785 58.2848 73.9027 58.6232 73.9269 58.865H73.3225L73.2742 58.3815H73.25C73.0324 58.6716 72.6456 58.9375 72.1138 58.9375C71.3643 58.9375 70.9775 58.4056 70.9775 57.8738C70.9775 56.9793 71.7753 56.4716 73.2258 56.4716V56.3991C73.2258 56.109 73.1291 55.5288 72.3797 55.5288C72.0171 55.5288 71.6544 55.6255 71.3885 55.8189L71.2435 55.3596C71.5577 55.1662 72.0171 55.0453 72.4764 55.0453C73.6126 55.0453 73.9027 55.8189 73.9027 56.5683V57.9705H73.8785ZM73.2258 56.9551C72.4764 56.931 71.6303 57.076 71.6303 57.8013C71.6303 58.2606 71.9204 58.454 72.2588 58.454C72.7423 58.454 73.0808 58.1397 73.1775 57.8254C73.2016 57.7529 73.2016 57.6804 73.2016 57.6079V56.9551H73.2258Z" fill="white"/>
<path d="M77.0938 58.188C77.3114 58.3088 77.6498 58.4539 77.9883 58.4539C78.4718 58.4539 78.7135 58.2121 78.7135 57.8979C78.7135 57.5836 78.5201 57.4144 78.0366 57.221C77.3597 56.9792 77.0454 56.6166 77.0454 56.1573C77.0454 55.5529 77.5289 55.0694 78.3267 55.0694C78.7135 55.0694 79.0278 55.1661 79.2454 55.3111L79.0761 55.7946C78.9311 55.6979 78.6652 55.5771 78.3025 55.5771C77.8916 55.5771 77.674 55.8188 77.674 56.0847C77.674 56.399 77.8916 56.5441 78.3751 56.7375C79.0278 56.9792 79.3662 57.2935 79.3662 57.8495C79.3662 58.5264 78.8586 58.9857 77.9641 58.9857C77.5531 58.9857 77.1663 58.889 76.9004 58.7198L77.0938 58.188Z" fill="white"/>
<path d="M86.2078 58.188C86.4254 58.3088 86.7638 58.4539 87.1023 58.4539C87.5858 58.4539 87.8275 58.2121 87.8275 57.8979C87.8275 57.5836 87.6341 57.4144 87.1506 57.221C86.4737 56.9792 86.1595 56.6166 86.1595 56.1573C86.1595 55.5529 86.643 55.0694 87.4407 55.0694C87.8275 55.0694 88.1418 55.1661 88.3594 55.3111L88.1901 55.7946C88.0451 55.6979 87.7792 55.5771 87.4166 55.5771C87.0056 55.5771 86.788 55.8188 86.788 56.0847C86.788 56.399 87.0056 56.5441 87.4891 56.7375C88.1418 56.9792 88.4803 57.2935 88.4803 57.8495C88.4803 58.5264 87.9726 58.9857 87.0781 58.9857C86.6671 58.9857 86.2803 58.889 86.0144 58.7198L86.2078 58.188Z" fill="white"/>
<path d="M91.5747 56.3508C91.5747 55.8673 91.5505 55.4805 91.5505 55.1178H92.1549L92.2033 55.7706H92.2274C92.4934 55.3112 92.9527 55.0453 93.5571 55.0453C94.4757 55.0453 95.1526 55.8189 95.1526 56.931C95.1526 58.2848 94.3307 58.9375 93.4362 58.9375C92.9527 58.9375 92.5175 58.7199 92.2758 58.3573H92.2516V60.388H91.5747V56.3508ZM92.2516 57.3419C92.2516 57.4386 92.2516 57.5353 92.2758 57.632C92.3967 58.1155 92.8076 58.4298 93.2911 58.4298C94.0164 58.4298 94.4274 57.8496 94.4274 56.9793C94.4274 56.2299 94.0406 55.6013 93.3153 55.6013C92.856 55.6013 92.4208 55.9156 92.2758 56.4475C92.2516 56.5442 92.2274 56.6409 92.2274 56.7134V57.3419H92.2516Z" fill="white"/>
<path d="M98.1743 56.2782C98.1743 55.8431 98.1743 55.4563 98.1501 55.1178H98.7545L98.7787 55.8673H98.8029C98.9721 55.3596 99.3831 55.0453 99.8424 55.0453C99.9149 55.0453 99.9633 55.0453 100.036 55.0695V55.7222C99.9633 55.698 99.8907 55.698 99.794 55.698C99.3105 55.698 98.9721 56.0607 98.8754 56.5683C98.8512 56.665 98.8512 56.7859 98.8512 56.8826V58.8891H98.1743V56.2782Z" fill="white"/>
<path d="M103.203 57.1243C103.227 58.0429 103.807 58.4297 104.484 58.4297C104.968 58.4297 105.282 58.333 105.524 58.2363L105.644 58.7198C105.403 58.8165 104.992 58.9616 104.387 58.9616C103.227 58.9616 102.55 58.188 102.55 57.0759C102.55 55.9397 103.227 55.0694 104.315 55.0694C105.548 55.0694 105.862 56.1331 105.862 56.8342C105.862 56.9792 105.862 57.0759 105.838 57.1484H103.203V57.1243ZM105.209 56.6408C105.209 56.2056 105.04 55.5529 104.266 55.5529C103.565 55.5529 103.275 56.1814 103.227 56.6408H105.209Z" fill="white"/>
<path d="M108.908 56.1332C108.908 55.7464 108.908 55.4321 108.884 55.1178H109.488L109.537 55.7464H109.561C109.754 55.4079 110.189 55.0453 110.794 55.0453C111.301 55.0453 112.123 55.3596 112.123 56.6409V58.865H111.446V56.7134C111.446 56.109 111.229 55.6013 110.576 55.6013C110.141 55.6013 109.778 55.9156 109.657 56.3024C109.633 56.3991 109.609 56.4958 109.609 56.6167V58.865H108.932V56.1332H108.908Z" fill="white"/>
<path d="M118.626 53.3772V57.8979C118.626 58.2363 118.651 58.599 118.651 58.8649H118.046L118.022 58.2122H117.998C117.805 58.6231 117.345 58.9374 116.741 58.9374C115.846 58.9374 115.121 58.1638 115.121 57.0276C115.121 55.7705 115.895 55.0211 116.789 55.0211C117.369 55.0211 117.756 55.287 117.925 55.5771H117.95V53.353H118.626V53.3772ZM117.974 56.6408C117.974 56.5441 117.974 56.4474 117.95 56.3507C117.853 55.9155 117.466 55.5771 116.958 55.5771C116.257 55.5771 115.846 56.2056 115.846 57.0276C115.846 57.777 116.233 58.4056 116.958 58.4056C117.418 58.4056 117.829 58.0913 117.95 57.5836C117.974 57.4869 117.974 57.3902 117.974 57.2935V56.6408Z" fill="white"/>
<path d="M122.736 54.0783C122.736 54.32 122.567 54.4893 122.301 54.4893C122.059 54.4893 121.89 54.2959 121.89 54.0783C121.89 53.8365 122.059 53.6431 122.325 53.6431C122.567 53.6431 122.736 53.8365 122.736 54.0783ZM121.987 58.8649V55.1178H122.664V58.8649H121.987Z" fill="white"/>
<path d="M126 56.1332C126 55.7464 125.976 55.4321 125.976 55.1178H126.58L126.604 55.7222H126.628C126.846 55.3596 127.184 55.0453 127.813 55.0453C128.321 55.0453 128.707 55.3596 128.877 55.7947H128.901C129.022 55.5772 129.167 55.4321 129.336 55.3112C129.553 55.142 129.795 55.0453 130.158 55.0453C130.666 55.0453 131.391 55.3596 131.391 56.665V58.865H130.714V56.7617C130.714 56.0365 130.448 55.6013 129.892 55.6013C129.505 55.6013 129.215 55.8914 129.07 56.2057C129.046 56.3024 129.022 56.4233 129.022 56.5442V58.865H128.345V56.6167C128.345 56.0123 128.079 55.6013 127.571 55.6013C127.16 55.6013 126.846 55.9398 126.725 56.2782C126.677 56.3749 126.677 56.4958 126.677 56.6167V58.865H126V56.1332Z" fill="white"/>
<path d="M137.289 57.9705C137.289 58.2848 137.313 58.6232 137.338 58.865H136.733L136.685 58.3815H136.661C136.443 58.6716 136.056 58.9375 135.524 58.9375C134.775 58.9375 134.388 58.4056 134.388 57.8738C134.388 56.9793 135.186 56.4716 136.636 56.4716V56.3991C136.636 56.109 136.54 55.5288 135.79 55.5288C135.428 55.5288 135.065 55.6255 134.799 55.8189L134.654 55.3596C134.968 55.1662 135.428 55.0453 135.887 55.0453C137.023 55.0453 137.313 55.8189 137.313 56.5683V57.9705H137.289ZM136.612 56.9551C135.863 56.931 135.017 57.076 135.017 57.8013C135.017 58.2606 135.307 58.454 135.645 58.454C136.129 58.454 136.467 58.1397 136.564 57.8254C136.588 57.7529 136.588 57.6804 136.588 57.6079V56.9551H136.612Z" fill="white"/>
<path d="M140.505 58.188C140.722 58.3088 141.061 58.4539 141.399 58.4539C141.883 58.4539 142.125 58.2121 142.125 57.8979C142.125 57.5836 141.931 57.4144 141.448 57.221C140.771 56.9792 140.457 56.6166 140.457 56.1573C140.457 55.5529 140.94 55.0694 141.738 55.0694C142.125 55.0694 142.439 55.1661 142.656 55.3111L142.487 55.7946C142.342 55.6979 142.076 55.5771 141.714 55.5771C141.303 55.5771 141.085 55.8188 141.085 56.0847C141.085 56.399 141.303 56.5441 141.786 56.7375C142.439 56.9792 142.777 57.2935 142.777 57.8495C142.777 58.5264 142.27 58.9857 141.375 58.9857C140.964 58.9857 140.577 58.889 140.312 58.7198L140.505 58.188Z" fill="white"/>
<path d="M149.691 56.1332C149.691 55.7464 149.691 55.4321 149.667 55.1178H150.271L150.319 55.7464H150.344C150.537 55.4079 150.972 55.0453 151.577 55.0453C152.084 55.0453 152.906 55.3596 152.906 56.6409V58.865H152.229V56.7134C152.229 56.109 152.012 55.6013 151.359 55.6013C150.924 55.6013 150.561 55.9156 150.44 56.3024C150.416 56.3991 150.392 56.4958 150.392 56.6167V58.865H149.715V56.1332H149.691Z" fill="white"/>
<path d="M158.829 57.9705C158.829 58.2848 158.853 58.6232 158.878 58.865H158.273L158.225 58.3815H158.201C157.983 58.6716 157.596 58.9375 157.064 58.9375C156.315 58.9375 155.928 58.4056 155.928 57.8738C155.928 56.9793 156.726 56.4716 158.176 56.4716V56.3991C158.176 56.109 158.08 55.5288 157.33 55.5288C156.968 55.5288 156.605 55.6255 156.339 55.8189L156.194 55.3596C156.508 55.1662 156.968 55.0453 157.427 55.0453C158.563 55.0453 158.853 55.8189 158.853 56.5683V57.9705H158.829ZM158.176 56.9551C157.427 56.931 156.581 57.076 156.581 57.8013C156.581 58.2606 156.871 58.454 157.209 58.454C157.693 58.454 158.031 58.1397 158.128 57.8254C158.152 57.7529 158.152 57.6804 158.152 57.6079V56.9551H158.176Z" fill="white"/>
<path d="M162.141 56.1332C162.141 55.7464 162.117 55.4321 162.117 55.1178H162.721L162.745 55.7222H162.77C162.987 55.3596 163.326 55.0453 163.954 55.0453C164.462 55.0453 164.849 55.3596 165.018 55.7947H165.042C165.163 55.5772 165.308 55.4321 165.477 55.3112C165.695 55.142 165.937 55.0453 166.299 55.0453C166.807 55.0453 167.532 55.3596 167.532 56.665V58.865H166.807V56.7617C166.807 56.0365 166.541 55.6013 165.985 55.6013C165.598 55.6013 165.308 55.8914 165.163 56.2057C165.139 56.3024 165.115 56.4233 165.115 56.5442V58.865H164.438V56.6167C164.438 56.0123 164.172 55.6013 163.664 55.6013C163.253 55.6013 162.939 55.9398 162.818 56.2782C162.77 56.3749 162.77 56.4958 162.77 56.6167V58.865H162.093V56.1332H162.141Z" fill="white"/>
<path d="M173.914 57.8253C173.914 58.2121 173.914 58.5506 173.939 58.8649H173.334L173.286 58.2605H173.262C173.093 58.5506 172.682 58.9616 172.029 58.9616C171.449 58.9616 170.748 58.6231 170.748 57.3177V55.1177H171.424V57.1726C171.424 57.8737 171.642 58.3814 172.271 58.3814C172.73 58.3814 173.044 58.0671 173.165 57.7528C173.213 57.6561 173.238 57.5352 173.238 57.4144V55.1177H173.914V57.8253Z" fill="white"/>
<path d="M178 54.0783C178 54.32 177.831 54.4893 177.565 54.4893C177.323 54.4893 177.154 54.2959 177.154 54.0783C177.154 53.8365 177.323 53.6431 177.589 53.6431C177.831 53.6431 178 53.8365 178 54.0783ZM177.251 58.8649V55.1178H177.927V58.8649H177.251Z" fill="white"/>
</svg>
